<svg id="coeur" xmlns="http://www.w3.org/2000/svg" viewBox="0 0 629 618"><defs><style>.cls-1{fill:#fff;}.cls-2{fill:none;stroke:#020201;stroke-miterlimit:10;stroke-width:14px;}</style></defs><title>heart-solid-mask</title><g id="enveloppe_blanche" data-name="enveloppe blanche"><path class="cls-1" d="M630-1V617H1V-1ZM531.1,321.5A142.41,142.41,0,0,0,571,222.14c0-40.14-16.57-80.27-49.7-108.54C466.5,66.9,385,75.3,334.7,127.2L315,147.5l-19.7-20.3c-50.2-51.9-131.8-60.3-186.6-13.6-62.8,53.6-66.1,149.8-9.9,207.9L292.3,521.3a31.35,31.35,0,0,0,45.3,0Z" transform="translate(-1 1)"/></g><path id="contour" class="cls-2" d="M521.3,113.6C466.5,66.9,385,75.3,334.7,127.2L315,147.5l-19.7-20.3c-50.2-51.9-131.8-60.3-186.6-13.6-62.8,53.6-66.1,149.8-9.9,207.9L292.3,521.3a31.35,31.35,0,0,0,45.3,0L531.1,321.5c56.3-58.1,53-154.3-9.8-207.9Z" transform="translate(-1 1)"/></svg>