<svg id="coeur" xmlns="http://www.w3.org/2000/svg" viewBox="0 0 629 618"><defs><style>.cls-1{fill:#f6f6f6;}.cls-2{fill:none;stroke:#020201;stroke-miterlimit:10;stroke-width:14px;}</style></defs><title>heart-solid-mask-grey</title><g id="enveloppe_blanche" data-name="enveloppe blanche"><path class="cls-1" d="M629,0V618H0V0ZM530.1,322.5A142.41,142.41,0,0,0,570,223.14c0-40.14-16.57-80.27-49.7-108.54C465.5,67.9,384,76.3,333.7,128.2L314,148.5l-19.7-20.3c-50.2-51.9-131.8-60.3-186.6-13.6-62.8,53.6-66.1,149.8-9.9,207.9L291.3,522.3a31.34,31.34,0,0,0,44.32,1c.34-.32.66-.65,1-1Z"/></g><path id="contour" class="cls-2" d="M520.3,114.6C465.5,67.9,384,76.3,333.7,128.2L314,148.5l-19.7-20.3c-50.2-51.9-131.8-60.3-186.6-13.6-62.8,53.6-66.1,149.8-9.9,207.9L291.3,522.3a31.34,31.34,0,0,0,44.32,1c.34-.32.66-.65,1-1L530.1,322.5C586.4,264.4,583.1,168.2,520.3,114.6Z"/></svg>