<?xml version="1.0" encoding="utf-8"?>
<!-- Generator: Adobe Illustrator 23.1.0, SVG Export Plug-In . SVG Version: 6.00 Build 0)  -->
<svg version="1.1" id="coeur" xmlns="http://www.w3.org/2000/svg" xmlns:xlink="http://www.w3.org/1999/xlink" x="0px" y="0px"
	 viewBox="0 0 629 618" style="enable-background:new 0 0 629 618;" xml:space="preserve">
<style type="text/css">
	.st0{fill:#F6F6F6;}
	.st1{fill:none;stroke:#020201;stroke-width:14;stroke-miterlimit:10;}
</style>
<title>heart-solid-mask</title>
<g id="enveloppe_blanche">
	<path class="st0" d="M629,0v618H0V0H629z M530.1,322.5c25.7-26.7,40-62.3,39.9-99.4c0-40.1-16.6-80.3-49.7-108.5
		C465.5,67.9,384,76.3,333.7,128.2L314,148.5l-19.7-20.3c-50.2-51.9-131.8-60.3-186.6-13.6c-62.8,53.6-66.1,149.8-9.9,207.9
		l193.5,199.8c12,12.5,31.8,12.9,44.3,1c0.3-0.3,0.7-0.6,1-1L530.1,322.5z"/>
</g>
<path id="contour" class="st1" d="M520.3,114.6C465.5,67.9,384,76.3,333.7,128.2L314,148.5l-19.7-20.3
	c-50.2-51.9-131.8-60.3-186.6-13.6c-62.8,53.6-66.1,149.8-9.9,207.9l193.5,199.8c12,12.5,31.8,12.9,44.3,1c0.3-0.3,0.7-0.6,1-1
	l193.5-199.8C586.4,264.4,583.1,168.2,520.3,114.6z"/>
</svg>
