<svg xmlns="http://www.w3.org/2000/svg" viewBox="0 0 1693.78 1360.16"><defs><style>.cls-1{fill:#fff;}.cls-2{fill:none;stroke:#bfbfbf;stroke-miterlimit:10;stroke-width:12px;}</style></defs><title>wine_and_chicken</title><g id="wine_-_copie" data-name="wine - copie"><path class="cls-1" d="M-4.39,5.67,4.17,1360.13H1689.4L1683.69,0Zm703.64,919.8h-208a8,8,0,0,1-8-8,40,40,0,0,1,40-40h40V760.29a144.65,144.65,0,0,1-111.4-154.16l16-178.11a15.85,15.85,0,0,1,15.7-14.55H707A15.86,15.86,0,0,1,722.7,428l15.95,178.1a144.65,144.65,0,0,1-111.4,154.16V877.47h40a40,40,0,0,1,40,40A8,8,0,0,1,699.25,925.47ZM1228.94,589c-42-22.66-94.36-17.56-128.74,16.8-40.88,40.84-40.69,107.18-1,151.07a188.16,188.16,0,0,1-61.89,10H951.37l-40.61,40.56c-9.72,9.75-11.09,24-6,36.75a60.35,60.35,0,0,1-98.8,65c-15.28-15.27-19.6-36.5-15.1-56.1-19.61,4.49-40.85.18-56.12-15.07a60.33,60.33,0,0,1,65-98.72c12.78,5.07,27.08,3.69,36.78-6l40.62-40.59V606.86c0-64,27.69-107,63.17-142.43a169.44,169.44,0,0,1,239.5,0C1214.13,498.71,1230.24,544,1228.94,589Z" transform="translate(4.39 0.03)"/><polygon class="cls-1" points="681.88 461.5 517.38 461.5 510.21 541.5 689.05 541.5 681.88 461.5"/></g><g id="wine"><path class="cls-2" d="M1179.81,464.43a169.44,169.44,0,0,0-239.5,0c-35.48,35.43-63.17,78.43-63.17,142.43v85.83l-40.62,40.59c-9.7,9.69-24,11.07-36.78,6a60.33,60.33,0,0,0-65,98.72c15.27,15.25,36.51,19.56,56.12,15.07-4.5,19.6-.18,40.83,15.1,56.1a60.35,60.35,0,0,0,98.8-65c-5.09-12.73-3.72-27,6-36.75l40.61-40.56h85.89a188.16,188.16,0,0,0,61.89-10c-39.64-43.89-39.83-110.23,1-151.07,34.38-34.36,86.76-39.46,128.74-16.8C1230.24,544,1214.13,498.71,1179.81,464.43Z" transform="translate(4.39 0.03)"/><path class="cls-2" d="M667.25,877.47h-40V760.28a144.65,144.65,0,0,0,111.4-154.16L722.7,428A15.86,15.86,0,0,0,707,413.47H483.51A15.85,15.85,0,0,0,467.81,428l-16,178.11a144.65,144.65,0,0,0,111.4,154.16V877.47h-40a40,40,0,0,0-40,40,8,8,0,0,0,8,8h208a8,8,0,0,0,8-8A40,40,0,0,0,667.25,877.47ZM513,461.47H677.5l7.17,80H505.83Z" transform="translate(4.39 0.03)"/></g></svg>